<svg width="11" height="22" viewBox="0 0 11 22" fill="none" xmlns="http://www.w3.org/2000/svg">
<path d="M9.49963 5.7478V16.3278C9.49963 18.4178 7.96963 20.2778 5.88963 20.4778C5.33398 20.5333 4.77286 20.4717 4.24251 20.2968C3.71216 20.122 3.22438 19.8379 2.81067 19.4628C2.39696 19.0878 2.06653 18.6301 1.8407 18.1194C1.61488 17.6086 1.49869 17.0562 1.49963 16.4978V4.1378C1.49963 2.8278 2.43963 1.6378 3.73963 1.5078C4.08827 1.47134 4.44067 1.50861 4.77397 1.61718C5.10727 1.72576 5.41401 1.90321 5.67428 2.13802C5.93455 2.37282 6.14253 2.65974 6.28472 2.98014C6.42691 3.30054 6.50013 3.64726 6.49963 3.9978V14.4978C6.49963 15.0478 6.04963 15.4978 5.49963 15.4978C4.94963 15.4978 4.49963 15.0478 4.49963 14.4978V5.7478C4.49963 5.3378 4.15963 4.9978 3.74963 4.9978C3.33963 4.9978 2.99963 5.3378 2.99963 5.7478V14.3578C2.99963 15.6678 3.93963 16.8578 5.23963 16.9878C5.58827 17.0243 5.94067 16.987 6.27397 16.8784C6.60727 16.7698 6.91401 16.5924 7.17428 16.3576C7.43455 16.1228 7.64253 15.8359 7.78472 15.5155C7.92691 15.1951 8.00013 14.8483 7.99963 14.4978V4.1678C7.99963 2.0778 6.46963 0.2178 4.38963 0.0177996C3.83414 -0.0369303 3.27333 0.0252682 2.74333 0.200391C2.21332 0.375514 1.72586 0.659679 1.31232 1.03459C0.898783 1.40951 0.568336 1.86687 0.342252 2.37722C0.116168 2.88757 -0.000542492 3.43961 -0.000366011 3.9978V16.2678C-0.000366011 19.1378 2.09963 21.7078 4.95963 21.9778C8.24963 22.2778 10.9996 19.7178 10.9996 16.4978V5.7478C10.9996 5.3378 10.6596 4.9978 10.2496 4.9978C9.83963 4.9978 9.49963 5.3378 9.49963 5.7478Z" fill="#333333"/>
</svg>
